<svg width="48" height="48" viewBox="0 0 48 48" fill="none" xmlns="http://www.w3.org/2000/svg">
<g clip-path="url(#clip0_22_1148)">
<rect width="48" height="48" fill="white"/>
<rect width="48" height="48" fill="#F18D8D"/>
<rect width="48" height="48" fill="url(#paint0_linear_22_1148)"/>
<path d="M24.0002 13.4922C25.5298 13.4922 26.7739 14.7107 26.8095 16.2274C26.8104 16.2579 26.8106 16.2884 26.8104 16.3189V22.8522L30.1297 18.1882C30.1598 18.1455 30.191 18.1036 30.2234 18.0627C30.2283 18.0564 30.2334 18.0501 30.2384 18.0439C30.262 18.0146 30.2861 17.9856 30.3108 17.9573C30.5348 17.7001 30.7978 17.4923 31.0847 17.3365C31.093 17.332 31.1013 17.3276 31.1096 17.3232C31.1197 17.3178 31.1297 17.3125 31.1398 17.3073C31.4501 17.1469 31.7943 17.0429 32.1588 17.008C32.1911 17.0048 32.2235 17.0023 32.2559 17.0003C32.269 16.9995 32.2822 16.9985 32.2953 16.9979C32.304 16.9974 32.3126 16.9974 32.3212 16.997C32.3348 16.9965 32.3484 16.9958 32.3621 16.9955C32.5726 16.9902 32.7843 17.0085 32.9931 17.0509C32.9974 17.0518 33.0018 17.0527 33.0061 17.0536C33.0236 17.0573 33.041 17.0611 33.0584 17.0651C33.0647 17.0665 33.0709 17.0679 33.0771 17.0694C33.092 17.0729 33.1069 17.0764 33.1217 17.0801C33.1323 17.0828 33.1428 17.0856 33.1533 17.0883C33.1647 17.0914 33.1762 17.0944 33.1876 17.0976C33.1964 17.1 33.2051 17.1026 33.2138 17.1051C33.2288 17.1094 33.2437 17.1139 33.2586 17.1184C33.2664 17.1208 33.2742 17.1233 33.2819 17.1258C33.2937 17.1295 33.3055 17.1334 33.3173 17.1373C33.3299 17.1415 33.3426 17.1457 33.3552 17.1501C33.3629 17.1528 33.3708 17.1553 33.3785 17.1581C33.6905 17.2695 33.977 17.4344 34.2268 17.6416C34.2315 17.6455 34.2361 17.6495 34.2407 17.6534C34.2521 17.663 34.2635 17.6726 34.2747 17.6823C34.5336 17.9062 34.7427 18.1693 34.8992 18.4564C34.9033 18.4639 34.9073 18.4715 34.9114 18.4791C34.9168 18.4893 34.9222 18.4994 34.9275 18.5096C35.0978 18.8372 35.205 19.2025 35.2333 19.5898C35.2341 19.6004 35.2347 19.6111 35.2354 19.6217C35.2362 19.6351 35.2372 19.6484 35.2378 19.6618C35.2403 19.7131 35.2414 19.7645 35.2411 19.816V28.2031C35.2411 29.7507 33.9829 31.0052 32.4308 31.0052C30.9987 31.0052 29.8168 29.9369 29.6427 28.556L26.5257 32.9357C26.0688 33.8667 25.1096 34.5078 24.0002 34.5078C23.8328 34.5078 23.6689 34.493 23.5096 34.4651C23.0978 34.3987 22.6945 34.2398 22.3316 33.9824C21.4222 33.3376 21.0135 32.252 21.19 31.2241V25.0752L18.1214 29.3777C17.6759 30.3385 16.7009 31.0052 15.5695 31.0052C14.0175 31.0052 12.7593 29.7507 12.7593 28.2031V28.132C12.7593 28.123 12.7593 28.1141 12.7593 28.1051V19.7969C12.7593 18.2493 14.0175 16.9948 15.5695 16.9948C16.9821 16.9948 18.151 18.034 18.3497 19.3874L21.6306 14.787C22.1298 14.0084 23.0046 13.4922 24.0002 13.4922Z" fill="white"/>
</g>
<defs>
<linearGradient id="paint0_linear_22_1148" x1="24" y1="0" x2="24" y2="39.9375" gradientUnits="userSpaceOnUse">
<stop stop-color="#81BBFF"/>
<stop offset="1" stop-color="#0086FF"/>
</linearGradient>
<clipPath id="clip0_22_1148">
<rect width="48" height="48" fill="white"/>
</clipPath>
</defs>
</svg>
